<mxfile host="app.diagrams.net" agent="Mozilla/5.0 (Windows NT 10.0; Win64; x64; rv:140.0) Gecko/20100101 Firefox/140.0" version="28.2.5">
  <diagram name="Страница — 1" id="WaxAiUIRizKOhUmLeXMr">
    <mxGraphModel dx="786" dy="683" grid="1" gridSize="10" guides="1" tooltips="1" connect="1" arrows="1" fold="1" page="1" pageScale="1" pageWidth="827" pageHeight="1169" math="0" shadow="0">
      <root>
        <mxCell id="0" />
        <mxCell id="1" parent="0" />
        <mxCell id="W7aF_EDlNgNxBTyaiC9O-1" value="&lt;div&gt;ИС Для тренировки памяти&lt;/div&gt;" style="rounded=0;whiteSpace=wrap;html=1;" vertex="1" parent="1">
          <mxGeometry x="340" y="200" width="176" height="90" as="geometry" />
        </mxCell>
        <mxCell id="W7aF_EDlNgNxBTyaiC9O-3" value="Вход студента" style="rounded=0;whiteSpace=wrap;html=1;" vertex="1" parent="1">
          <mxGeometry x="70" y="370" width="120" height="60" as="geometry" />
        </mxCell>
        <mxCell id="W7aF_EDlNgNxBTyaiC9O-4" value="Выбор дисциплины и тренировки" style="rounded=0;whiteSpace=wrap;html=1;" vertex="1" parent="1">
          <mxGeometry x="220" y="370" width="120" height="60" as="geometry" />
        </mxCell>
        <mxCell id="W7aF_EDlNgNxBTyaiC9O-5" value="Выполнение тренировки" style="rounded=0;whiteSpace=wrap;html=1;" vertex="1" parent="1">
          <mxGeometry x="368" y="370" width="120" height="60" as="geometry" />
        </mxCell>
        <mxCell id="W7aF_EDlNgNxBTyaiC9O-6" value="Запись результата" style="rounded=0;whiteSpace=wrap;html=1;" vertex="1" parent="1">
          <mxGeometry x="516" y="370" width="120" height="60" as="geometry" />
        </mxCell>
        <mxCell id="W7aF_EDlNgNxBTyaiC9O-7" value="Подготовка следующей тренировки" style="rounded=0;whiteSpace=wrap;html=1;" vertex="1" parent="1">
          <mxGeometry x="660" y="370" width="120" height="60" as="geometry" />
        </mxCell>
        <mxCell id="W7aF_EDlNgNxBTyaiC9O-8" value="" style="endArrow=none;html=1;rounded=0;entryX=0.5;entryY=0;entryDx=0;entryDy=0;exitX=0.5;exitY=1;exitDx=0;exitDy=0;endFill=0;" edge="1" parent="1" source="W7aF_EDlNgNxBTyaiC9O-1" target="W7aF_EDlNgNxBTyaiC9O-3">
          <mxGeometry width="50" height="50" relative="1" as="geometry">
            <mxPoint x="260" y="330" as="sourcePoint" />
            <mxPoint x="310" y="280" as="targetPoint" />
          </mxGeometry>
        </mxCell>
        <mxCell id="W7aF_EDlNgNxBTyaiC9O-9" value="" style="endArrow=none;html=1;rounded=0;exitX=0.5;exitY=0;exitDx=0;exitDy=0;endFill=0;" edge="1" parent="1" source="W7aF_EDlNgNxBTyaiC9O-7">
          <mxGeometry width="50" height="50" relative="1" as="geometry">
            <mxPoint x="711" y="240" as="sourcePoint" />
            <mxPoint x="430" y="290" as="targetPoint" />
          </mxGeometry>
        </mxCell>
        <mxCell id="W7aF_EDlNgNxBTyaiC9O-10" value="" style="endArrow=none;html=1;rounded=0;entryX=0.5;entryY=0;entryDx=0;entryDy=0;endFill=0;" edge="1" parent="1" target="W7aF_EDlNgNxBTyaiC9O-6">
          <mxGeometry width="50" height="50" relative="1" as="geometry">
            <mxPoint x="430" y="290" as="sourcePoint" />
            <mxPoint x="480" y="349" as="targetPoint" />
          </mxGeometry>
        </mxCell>
        <mxCell id="W7aF_EDlNgNxBTyaiC9O-11" value="" style="endArrow=none;html=1;rounded=0;entryX=0.75;entryY=0;entryDx=0;entryDy=0;exitX=0.5;exitY=1;exitDx=0;exitDy=0;endFill=0;" edge="1" parent="1" source="W7aF_EDlNgNxBTyaiC9O-1">
          <mxGeometry width="50" height="50" relative="1" as="geometry">
            <mxPoint x="631" y="291" as="sourcePoint" />
            <mxPoint x="430" y="370" as="targetPoint" />
          </mxGeometry>
        </mxCell>
        <mxCell id="W7aF_EDlNgNxBTyaiC9O-12" value="" style="endArrow=none;html=1;rounded=0;entryX=0.75;entryY=0;entryDx=0;entryDy=0;exitX=0.466;exitY=1.022;exitDx=0;exitDy=0;endFill=0;exitPerimeter=0;" edge="1" parent="1" source="W7aF_EDlNgNxBTyaiC9O-1">
          <mxGeometry width="50" height="50" relative="1" as="geometry">
            <mxPoint x="481" y="291" as="sourcePoint" />
            <mxPoint x="280" y="370" as="targetPoint" />
          </mxGeometry>
        </mxCell>
        <mxCell id="W7aF_EDlNgNxBTyaiC9O-13" value="A0" style="text;html=1;align=center;verticalAlign=middle;resizable=0;points=[];autosize=1;strokeColor=none;fillColor=none;" vertex="1" parent="1">
          <mxGeometry x="482" y="264" width="40" height="30" as="geometry" />
        </mxCell>
        <mxCell id="W7aF_EDlNgNxBTyaiC9O-14" value="A1" style="text;html=1;align=center;verticalAlign=middle;resizable=0;points=[];autosize=1;strokeColor=none;fillColor=none;" vertex="1" parent="1">
          <mxGeometry x="160" y="406" width="40" height="30" as="geometry" />
        </mxCell>
        <mxCell id="W7aF_EDlNgNxBTyaiC9O-15" value="A2" style="text;html=1;align=center;verticalAlign=middle;resizable=0;points=[];autosize=1;strokeColor=none;fillColor=none;" vertex="1" parent="1">
          <mxGeometry x="310" y="407" width="40" height="30" as="geometry" />
        </mxCell>
        <mxCell id="W7aF_EDlNgNxBTyaiC9O-16" value="A3" style="text;html=1;align=center;verticalAlign=middle;resizable=0;points=[];autosize=1;strokeColor=none;fillColor=none;" vertex="1" parent="1">
          <mxGeometry x="458" y="407" width="40" height="30" as="geometry" />
        </mxCell>
        <mxCell id="W7aF_EDlNgNxBTyaiC9O-17" value="A4" style="text;html=1;align=center;verticalAlign=middle;resizable=0;points=[];autosize=1;strokeColor=none;fillColor=none;" vertex="1" parent="1">
          <mxGeometry x="605" y="406" width="40" height="30" as="geometry" />
        </mxCell>
        <mxCell id="W7aF_EDlNgNxBTyaiC9O-18" value="A5" style="text;html=1;align=center;verticalAlign=middle;resizable=0;points=[];autosize=1;strokeColor=none;fillColor=none;" vertex="1" parent="1">
          <mxGeometry x="750" y="407" width="40" height="30" as="geometry" />
        </mxCell>
      </root>
    </mxGraphModel>
  </diagram>
</mxfile>
